<svg xmlns="http://www.w3.org/2000/svg" viewBox="0 0 1200 760" role="img" aria-labelledby="title desc">
  <title id="title">Бухгалтерия и учет: счет, сверка, согласование</title>
  <desc id="desc">Иллюстрация Saby для бухгалтерии и учета.</desc>
  <defs>
    <linearGradient id="bg" x1="0" x2="1" y1="0" y2="1"><stop stop-color="#071126"/><stop offset=".6" stop-color="#10294a"/><stop offset="1" stop-color="#071126"/></linearGradient>
    <filter id="shadow" x="-20%" y="-20%" width="140%" height="140%"><feDropShadow dx="0" dy="24" stdDeviation="24" flood-color="#021027" flood-opacity=".42"/></filter>
  </defs>
  <rect width="1200" height="760" rx="46" fill="url(#bg)"/>
  <path d="M160 568h880" stroke="#4edff2" stroke-opacity=".16"/>
  <g filter="url(#shadow)">
    <rect x="170" y="155" width="330" height="430" rx="28" fill="#f8fbff"/>
    <rect x="220" y="222" width="150" height="22" rx="11" fill="#10294a"/>
    <rect x="220" y="290" width="210" height="14" rx="7" fill="#bdcce0"/>
    <rect x="220" y="334" width="180" height="14" rx="7" fill="#bdcce0"/>
    <rect x="220" y="410" width="210" height="76" rx="18" fill="#eef4ff"/>
    <path d="M244 448h54m34 0h54" stroke="#386bff" stroke-width="10" stroke-linecap="round"/>
  </g>
  <g filter="url(#shadow)">
    <rect x="456" y="214" width="330" height="360" rx="28" fill="#0d1d36" stroke="#2c4c74"/>
    <circle cx="538" cy="306" r="42" fill="#112c4d" stroke="#4edff2" stroke-width="9"/>
    <circle cx="704" cy="306" r="42" fill="#112c4d" stroke="#ffd630" stroke-width="9"/>
    <path d="M580 306h82" stroke="#7f94ad" stroke-width="8" stroke-linecap="round"/>
    <rect x="520" y="404" width="200" height="18" rx="9" fill="#4edff2"/>
    <rect x="520" y="458" width="160" height="14" rx="7" fill="#7f94ad"/>
  </g>
  <g filter="url(#shadow)">
    <rect x="744" y="156" width="284" height="292" rx="28" fill="#f7fbff"/>
    <rect x="796" y="224" width="132" height="18" rx="9" fill="#10294a"/>
    <rect x="796" y="286" width="172" height="14" rx="7" fill="#bdcce0"/>
    <rect x="796" y="326" width="132" height="14" rx="7" fill="#bdcce0"/>
    <circle cx="926" cy="390" r="34" fill="#ffd630"/>
  </g>
</svg>
