<svg xmlns="http://www.w3.org/2000/svg" viewBox="0 0 1200 760" role="img" aria-labelledby="title desc">
  <title id="title">ЭДО: электронный документ и статус подписи</title>
  <desc id="desc">Премиальная иллюстрация направления ЭДО для сайта Элдокс.</desc>
  <defs>
    <linearGradient id="bg" x1="0" x2="1" y1="0" y2="1"><stop stop-color="#071126"/><stop offset=".62" stop-color="#10294a"/><stop offset="1" stop-color="#071126"/></linearGradient>
    <linearGradient id="cyan" x1="0" x2="1"><stop stop-color="#4edff2"/><stop offset="1" stop-color="#386bff"/></linearGradient>
    <filter id="shadow" x="-20%" y="-20%" width="140%" height="140%"><feDropShadow dx="0" dy="24" stdDeviation="24" flood-color="#021027" flood-opacity=".42"/></filter>
  </defs>
  <rect width="1200" height="760" rx="46" fill="url(#bg)"/>
  <path d="M88 594C256 468 384 524 512 384c152-166 312-190 604-78" fill="none" stroke="#4edff2" stroke-opacity=".18" stroke-width="2"/>
  <g filter="url(#shadow)">
    <rect x="170" y="135" width="610" height="430" rx="30" fill="#f7fbff"/>
    <rect x="170" y="135" width="610" height="78" rx="30" fill="#e9f3ff"/>
    <circle cx="218" cy="174" r="11" fill="#4edff2"/><circle cx="254" cy="174" r="11" fill="#ffd630"/><circle cx="290" cy="174" r="11" fill="#386bff"/>
    <rect x="230" y="270" width="260" height="22" rx="11" fill="#10294a"/>
    <rect x="230" y="324" width="430" height="14" rx="7" fill="#b4c4d9"/>
    <rect x="230" y="362" width="380" height="14" rx="7" fill="#d1dbea"/>
    <rect x="230" y="400" width="300" height="14" rx="7" fill="#d1dbea"/>
    <path d="M232 474c48-42 96 28 144-12 26-22 46-36 80-18" fill="none" stroke="#10294a" stroke-width="8" stroke-linecap="round"/>
  </g>
  <g filter="url(#shadow)">
    <rect x="670" y="260" width="330" height="220" rx="28" fill="#0d1d36" stroke="#2c4c74"/>
    <circle cx="760" cy="370" r="58" fill="#112c4d" stroke="url(#cyan)" stroke-width="12"/>
    <path d="M730 369l24 24 56-66" fill="none" stroke="#ffd630" stroke-width="16" stroke-linecap="round" stroke-linejoin="round"/>
    <rect x="850" y="316" width="92" height="14" rx="7" fill="#4edff2"/>
    <rect x="850" y="360" width="110" height="12" rx="6" fill="#6f87a4"/>
    <rect x="850" y="398" width="78" height="12" rx="6" fill="#6f87a4"/>
  </g>
  <circle cx="1008" cy="216" r="8" fill="#ffd630"/><circle cx="1046" cy="292" r="6" fill="#4edff2"/><circle cx="952" cy="542" r="7" fill="#386bff"/>
</svg>
