<svg xmlns="http://www.w3.org/2000/svg" viewBox="0 0 1200 760" role="img" aria-labelledby="title desc">
  <title id="title">Торговля и склад: касса, остатки, документы</title>
  <desc id="desc">Иллюстрация Saby для торговли и склада.</desc>
  <defs>
    <linearGradient id="bg" x1="0" x2="1" y1="0" y2="1"><stop stop-color="#071126"/><stop offset=".65" stop-color="#10294a"/><stop offset="1" stop-color="#071126"/></linearGradient>
    <filter id="shadow" x="-20%" y="-20%" width="140%" height="140%"><feDropShadow dx="0" dy="24" stdDeviation="24" flood-color="#021027" flood-opacity=".42"/></filter>
  </defs>
  <rect width="1200" height="760" rx="46" fill="url(#bg)"/>
  <g filter="url(#shadow)">
    <rect x="160" y="205" width="350" height="286" rx="28" fill="#0d1d36" stroke="#2c4c74"/>
    <rect x="214" y="268" width="210" height="82" rx="18" fill="#112c4d" stroke="#4edff2" stroke-width="4"/>
    <rect x="222" y="394" width="250" height="44" rx="16" fill="#ffd630"/>
    <circle cx="276" cy="552" r="36" fill="#10294a" stroke="#4edff2" stroke-width="8"/>
    <circle cx="414" cy="552" r="36" fill="#10294a" stroke="#4edff2" stroke-width="8"/>
  </g>
  <g filter="url(#shadow)">
    <rect x="576" y="164" width="406" height="430" rx="30" fill="#f7fbff"/>
    <rect x="632" y="236" width="106" height="92" rx="18" fill="#dcecff"/>
    <rect x="766" y="236" width="106" height="92" rx="18" fill="#dcecff"/>
    <rect x="632" y="366" width="240" height="20" rx="10" fill="#10294a"/>
    <rect x="632" y="426" width="278" height="14" rx="7" fill="#bdcce0"/>
    <rect x="632" y="470" width="220" height="14" rx="7" fill="#bdcce0"/>
  </g>
  <path d="M498 378h82" stroke="#ffd630" stroke-width="9" stroke-linecap="round"/>
</svg>
