<svg xmlns="http://www.w3.org/2000/svg" viewBox="0 0 1200 620" role="img" aria-label="CRM-воронка и статусы">
  <defs>
    <linearGradient id="bg" x1="0" x2="1" y1="0" y2="1">
      <stop offset="0" stop-color="#071126"/>
      <stop offset="1" stop-color="#172b4d"/>
    </linearGradient>
  </defs>
  <rect width="1200" height="620" fill="url(#bg)"/>
  <g transform="translate(105 115)">
    <rect width="990" height="390" rx="30" fill="#ffffff" opacity=".08"/>
    <g transform="translate(45 55)">
      <rect width="190" height="260" rx="22" fill="#2447ff" opacity=".22"/>
      <rect x="230" width="190" height="260" rx="22" fill="#49dff2" opacity=".18"/>
      <rect x="460" width="190" height="260" rx="22" fill="#ffd91a" opacity=".22"/>
      <rect x="690" width="190" height="260" rx="22" fill="#ffffff" opacity=".12"/>
      <g fill="#ffffff" font-family="Arial, sans-serif">
        <text x="24" y="48" font-size="21" font-weight="700">Новая</text>
        <text x="254" y="48" font-size="21" font-weight="700">Расчет</text>
        <text x="484" y="48" font-size="21" font-weight="700">Запуск</text>
        <text x="714" y="48" font-size="21" font-weight="700">Контроль</text>
      </g>
      <g fill="#ffffff" opacity=".7">
        <rect x="24" y="92" width="130" height="13" rx="7"/>
        <rect x="24" y="132" width="95" height="13" rx="7"/>
        <rect x="254" y="92" width="120" height="13" rx="7"/>
        <rect x="254" y="132" width="145" height="13" rx="7"/>
        <rect x="484" y="92" width="110" height="13" rx="7"/>
        <rect x="484" y="132" width="130" height="13" rx="7"/>
        <rect x="714" y="92" width="125" height="13" rx="7"/>
        <rect x="714" y="132" width="96" height="13" rx="7"/>
      </g>
    </g>
  </g>
  <path d="M250 515 C420 570 670 565 950 500" fill="none" stroke="#49dff2" stroke-width="8" stroke-linecap="round" opacity=".65"/>
</svg>
