<svg xmlns="http://www.w3.org/2000/svg" viewBox="0 0 1200 620" role="img" aria-label="Электронные документы и маршрут согласования">
  <defs>
    <linearGradient id="bg" x1="0" x2="1" y1="0" y2="1">
      <stop offset="0" stop-color="#071126"/>
      <stop offset="1" stop-color="#123a5f"/>
    </linearGradient>
    <linearGradient id="doc" x1="0" x2="1">
      <stop offset="0" stop-color="#e9fbff"/>
      <stop offset="1" stop-color="#77e6ff"/>
    </linearGradient>
  </defs>
  <rect width="1200" height="620" fill="url(#bg)"/>
  <path d="M90 420 C260 240 420 500 590 300 S880 210 1110 120" fill="none" stroke="#49dff2" stroke-width="10" stroke-linecap="round" opacity=".7"/>
  <g transform="translate(185 125)">
    <rect width="235" height="310" rx="24" fill="url(#doc)" opacity=".95"/>
    <path d="M174 0 L235 62 L174 62 Z" fill="#2447ff" opacity=".35"/>
    <rect x="38" y="92" width="150" height="14" rx="7" fill="#102246" opacity=".55"/>
    <rect x="38" y="134" width="118" height="14" rx="7" fill="#102246" opacity=".35"/>
    <rect x="38" y="176" width="166" height="14" rx="7" fill="#102246" opacity=".35"/>
  </g>
  <g fill="#ffd91a">
    <circle cx="585" cy="300" r="21"/>
    <circle cx="880" cy="214" r="21"/>
    <circle cx="1110" cy="120" r="21"/>
  </g>
  <g transform="translate(540 375)" fill="#ffffff">
    <rect width="360" height="90" rx="18" opacity=".11"/>
    <text x="28" y="38" font-family="Arial, sans-serif" font-size="22" font-weight="700">Статус виден</text>
    <text x="28" y="66" font-family="Arial, sans-serif" font-size="17" opacity=".72">документ не теряется между каналами</text>
  </g>
</svg>
